<svg xmlns="http://www.w3.org/2000/svg" viewBox="0 0 45 45"><path d="M36.44 9.56a1.5 1.5 0 010-2.12l2-2a1.5 1.5 0 112.12 2.12l-2 2a1.5 1.5 0 01-2.12 0zM31.5 8A1.5 1.5 0 0033 6.5v-2a1.5 1.5 0 00-3 0v2A1.5 1.5 0 0031.5 8zm10 5h-2a1.5 1.5 0 000 3h2a1.5 1.5 0 000-3zm-1 7a1.5 1.5 0 00-1.5 1.5V36H8c7.37-3.64 18.47-12.22 23-17.92v4.42a1.5 1.5 0 003 0v-8a1.5 1.5 0 00-1.5-1.5h-8a1.5 1.5 0 000 3h4.33C24.43 21.66 11.69 31.32 5 34.06V9h19a1.5 1.5 0 000-3H5a3 3 0 00-3 3v27a3 3 0 003 3h34a3 3 0 003-3V21.5a1.5 1.5 0 00-1.5-1.5z"/></svg>