<svg xmlns="http://www.w3.org/2000/svg" viewBox="0 0 45 45"><path d="M39.005 11.005h-5v-5c0-.83-.68-1.5-1.5-1.5-.83 0-1.5.67-1.5 1.5v5h-5c-.83 0-1.5.67-1.5 1.5 0 .82.67 1.5 1.5 1.5h5v5c0 .82.67 1.5 1.5 1.5.82 0 1.5-.68 1.5-1.5v-5h5c.82 0 1.5-.68 1.5-1.5 0-.83-.68-1.5-1.5-1.5zM37.995 24h-10.99A3.004 3.004 0 0024 27.004v10.991A3.005 3.005 0 0027.005 41h10.99a3.006 3.006 0 003.006-3.005v-10.99A3.005 3.005 0 0037.996 24zm0 3l.006.004L37.996 38 27 37.995 27.005 27h10.99zm-20-3H7.006A3.004 3.004 0 004 27.004v10.991A3.005 3.005 0 007.005 41h10.99a3.006 3.006 0 003.006-3.005v-10.99A3.005 3.005 0 0017.996 24zm0 3l.006.004L17.996 38 7 37.995 7.005 27h10.99zm0-23H7.006A3.004 3.004 0 004 7.004v10.991A3.005 3.005 0 007.005 21h10.99a3.006 3.006 0 003.006-3.005V7.005A3.005 3.005 0 0017.996 4zm0 3l.006.004L17.996 18 7 17.995 7.005 7h10.99z"/></svg>